<?xml version="1.0" encoding="utf-8"?>
<!-- Generator: Adobe Illustrator 23.0.4, SVG Export Plug-In . SVG Version: 6.00 Build 0)  -->
<svg version="1.1" id="Layer_1" xmlns="http://www.w3.org/2000/svg" xmlns:xlink="http://www.w3.org/1999/xlink" x="0px" y="0px"
	 viewBox="0 0 17 17" style="enable-background:new 0 0 17 17;" xml:space="preserve">
<title>Bitmap</title>
<desc>Created with Sketch.</desc>
<g>
	<path d="M0.1,8.4c0-1.3,0-2.6,0-3.9c0-2.2,1.4-3.9,3.6-4.3c0.3,0,0.6-0.1,0.8-0.1c2.7,0,5.5,0,8.1,0c2,0,3.9,1.7,4.2,3.8
		c0,0.2,0,0.4,0,0.7c0,2.7,0,5.2,0,7.9c0,2.1-1.4,3.9-3.6,4.3c-0.2,0-0.4,0.1-0.7,0.1c-2.7,0-5.3,0-8.1,0c-2.1,0-3.9-1.6-4.2-3.7
		c0-0.2,0-0.4,0-0.7C0.1,11.1,0.1,9.8,0.1,8.4z M8.5,1.5c-1.3,0-2.7,0-4,0c-1.6,0-2.9,1.3-2.9,3c0,2.7,0,5.3,0,7.9
		c0,1.7,1.3,2.9,2.9,2.9c2.7,0,5.2,0,7.9,0c0.1,0,0.3,0,0.4,0c1.4-0.2,2.4-1.4,2.4-2.9c0-2.7,0-5.2,0-7.9c0-0.1,0-0.3,0-0.4
		c-0.2-1.4-1.4-2.4-2.9-2.4C11.2,1.5,9.8,1.5,8.5,1.5z"/>
	<path d="M8.5,12.7c-2.3,0-4.1-1.9-4.1-4.1c0-2.3,1.9-4.1,4.1-4.1c2.3,0,4.1,1.9,4.1,4.1S10.8,12.7,8.5,12.7z M5.6,8.4
		c0,1.6,1.2,2.9,2.9,2.9c1.6,0,2.9-1.3,2.9-2.9s-1.2-2.8-2.9-2.8C6.9,5.5,5.6,6.9,5.6,8.4z"/>
	<path d="M13.2,4.9c-0.6,0-1-0.4-1-1s0.4-1,1-1s1,0.4,1,1C14.1,4.4,13.6,4.9,13.2,4.9z"/>
</g>
</svg>
