<?xml version="1.0" encoding="utf-8"?>
<!-- Generator: Adobe Illustrator 23.0.4, SVG Export Plug-In . SVG Version: 6.00 Build 0)  -->
<svg version="1.1" id="Capa_1" xmlns="http://www.w3.org/2000/svg" xmlns:xlink="http://www.w3.org/1999/xlink" x="0px" y="0px"
	 viewBox="0 0 17 17" style="enable-background:new 0 0 17 17;" xml:space="preserve">
<g>
	<path id="LinkedIn__x28_alt_x29_" d="M15.2,0.9h-13C1.6,0.9,1.1,1.4,1.1,2v13c0,0.6,0.5,1.1,1.1,1.1h13c0.6,0,1.1-0.5,1.1-1.1V2
		C16.3,1.4,15.8,0.9,15.2,0.9z M5.7,13.6H3.4V6.8h2.3V13.6z M4.6,5.8L4.6,5.8c-0.8,0-1.3-0.5-1.3-1.2c0-0.7,0.5-1.2,1.3-1.2
		c0.8,0,1.3,0.5,1.3,1.2C5.9,5.3,5.4,5.8,4.6,5.8z M14,13.6h-2.3V10c0-0.9-0.3-1.6-1.2-1.6c-0.6,0-1,0.4-1.2,0.8
		C9.3,9.4,9.3,9.6,9.3,9.8v3.8H7c0,0,0-6.2,0-6.9h2.3v1c0.3-0.5,0.8-1.1,2.1-1.1c1.5,0,2.6,1,2.6,3.1L14,13.6L14,13.6z M9.3,7.8
		C9.3,7.7,9.3,7.7,9.3,7.8L9.3,7.8L9.3,7.8z"/>
</g>
</svg>
