<?xml version="1.0" encoding="utf-8"?>
<!-- Generator: Adobe Illustrator 23.0.4, SVG Export Plug-In . SVG Version: 6.00 Build 0)  -->
<svg version="1.1" id="Layer_1" xmlns="http://www.w3.org/2000/svg" xmlns:xlink="http://www.w3.org/1999/xlink" x="0px" y="0px"
	 viewBox="0 0 17 17" style="enable-background:new 0 0 17 17;" xml:space="preserve">
<g>
	<path d="M14.5,0.3h-12c-1.2,0-2.2,1-2.2,2.2v12c0,1.2,1,2.2,2.2,2.2h5.9l0-5.9H6.9c-0.2,0-0.4-0.2-0.4-0.4l0-1.9
		c0-0.2,0.2-0.4,0.4-0.4h1.5V6.4c0-2.1,1.3-3.3,3.2-3.3h1.6c0.2,0,0.4,0.2,0.4,0.4v1.6c0,0.2-0.2,0.4-0.4,0.4l-1,0
		c-1,0-1.2,0.5-1.2,1.2v1.6h2.3c0.2,0,0.4,0.2,0.4,0.4l-0.2,1.9c0,0.2-0.2,0.3-0.4,0.3h-2l0,5.9h3.5c1.2,0,2.2-1,2.2-2.2v-12
		C16.7,1.3,15.7,0.3,14.5,0.3z"/>
</g>
</svg>
