<?xml version="1.0" encoding="utf-8"?>
<!-- Generator: Adobe Illustrator 23.0.4, SVG Export Plug-In . SVG Version: 6.00 Build 0)  -->
<svg version="1.1" id="Layer_1" xmlns="http://www.w3.org/2000/svg" xmlns:xlink="http://www.w3.org/1999/xlink" x="0px" y="0px"
	 viewBox="0 0 17 17" style="enable-background:new 0 0 17 17;" xml:space="preserve">
<style type="text/css">
	.st0{fill-rule:evenodd;clip-rule:evenodd;}
</style>
<title>Fill 1</title>
<desc>Created with Sketch.</desc>
<g id="Page-1">
	<g transform="translate(-831.000000, -6387.000000)">
		<g id="Group-16" transform="translate(93.000000, 5895.000000)">
			<g id="Group-3">
				<g id="Group-23" transform="translate(540.000000, 485.000000)">
					<g id="Group-22" transform="translate(0.000000, 6.000000)">
						<path id="Fill-1" class="st0" d="M214.9,4.4c-0.6,0.3-1.3,0.5-2,0.5c0.7-0.4,1.3-1.1,1.5-1.9c-0.7,0.4-1.4,0.7-2.2,0.8
							c-0.6-0.7-1.5-1.1-2.5-1.1c-1.9,0-3.5,1.5-3.5,3.4c0,0.3,0,0.5,0.1,0.8c-2.9-0.1-5.4-1.5-7.1-3.5c-0.3,0.5-0.5,1.1-0.5,1.7
							c0,1.2,0.6,2.2,1.5,2.8c-0.6,0-1.1-0.2-1.6-0.4c0,0,0,0,0,0c0,1.6,1.2,3,2.8,3.3c-0.3,0.1-0.6,0.1-0.9,0.1
							c-0.2,0-0.4,0-0.7-0.1c0.4,1.3,1.7,2.3,3.2,2.4c-1.2,0.9-2.7,1.5-4.3,1.5c-0.3,0-0.6,0-0.8,0c1.5,1,3.4,1.5,5.3,1.5
							c6.4,0,9.9-5.2,9.9-9.7c0-0.1,0-0.3,0-0.4C213.9,5.6,214.5,5.1,214.9,4.4"/>
					</g>
				</g>
			</g>
		</g>
	</g>
</g>
</svg>
