<?xml version="1.0" encoding="utf-8"?>
<!-- Generator: Adobe Illustrator 23.0.4, SVG Export Plug-In . SVG Version: 6.00 Build 0)  -->
<svg version="1.1" id="Layer_1" xmlns="http://www.w3.org/2000/svg" xmlns:xlink="http://www.w3.org/1999/xlink" x="0px" y="0px"
	 viewBox="0 0 17 17" style="enable-background:new 0 0 17 17;" xml:space="preserve">
<style type="text/css">
	.st0{fill-rule:evenodd;clip-rule:evenodd;fill:#020202;}
</style>
<title>youtube</title>
<desc>Created with Sketch.</desc>
<g transform="translate(-702.000000, -6387.000000)">
	<g id="Group-16" transform="translate(93.000000, 5895.000000)">
		<g id="Group-23" transform="translate(540.000000, 485.000000)">
			<g id="Group-22" transform="translate(0.000000, 6.000000)">
				<g id="youtube" transform="translate(69.000000, 1.000000)">
					<polyline id="Fill-1" class="st0" points="7.2,10 9.8,8.5 7.2,7 7.2,10 					"/>
					<path id="Fill-3" class="st0" d="M13.7,8.9c0,0.9-0.1,1.7-0.1,1.7s-0.1,0.7-0.4,1c-0.4,0.4-0.8,0.4-1,0.5
						c-1.5,0.1-3.7,0.1-3.7,0.1s-2.7,0-3.6-0.1c-0.2,0-0.8,0-1.2-0.5c-0.3-0.3-0.4-1-0.4-1S3.3,9.7,3.3,8.9V8.1
						c0-0.9,0.1-1.7,0.1-1.7s0.1-0.7,0.4-1c0.4-0.4,0.8-0.4,1-0.5c1.5-0.1,3.7-0.1,3.7-0.1s2.2,0,3.7,0.1c0.2,0,0.7,0,1.1,0.5
						c0.3,0.3,0.4,1.1,0.4,1.1s0.1,0.9,0.1,1.7V8.9z M12.7,0.4H4.3C2,0.4,0.1,2.2,0.1,4.5v8.1c0,2.2,1.9,4.1,4.2,4.1h8.4
						c2.3,0,4.2-1.8,4.2-4.1V4.5C16.9,2.2,15,0.4,12.7,0.4L12.7,0.4z"/>
				</g>
			</g>
		</g>
	</g>
</g>
</svg>
